<svg xmlns="http://www.w3.org/2000/svg" width="480" height="120" viewBox="0 0 480 120" preserveAspectRatio="none"><defs><linearGradient id="sparklinekit-area-480x120-6-2563eb33" x1="0" y1="0" x2="0" y2="1"><stop offset="0%" stop-color="#2563eb33"/><stop offset="100%" stop-color="#2563eb00"/></linearGradient></defs><rect x="0" y="0" width="480" height="120" fill="#FFFFFF"/><path fill="url(#sparklinekit-area-480x120-6-2563eb33)" stroke="none" d="M 5.0 38.0 C 23.8 38.0, 80.2 93.0, 99.0 93.0 C 117.8 93.0, 174.2 16.0, 193.0 16.0 C 211.8 16.0, 268.2 115.0, 287.0 115.0 C 305.8 115.0, 362.2 5.0, 381.0 5.0 C 399.8 5.0, 456.2 82.0, 475.0 82.0 L 475.0 120.0 L 5.0 120.0 Z"/><path fill="none" stroke="#2563EB" stroke-width="2.8" stroke-linecap="round" stroke-linejoin="round" d="M 5.0 38.0 C 23.8 38.0, 80.2 93.0, 99.0 93.0 C 117.8 93.0, 174.2 16.0, 193.0 16.0 C 211.8 16.0, 268.2 115.0, 287.0 115.0 C 305.8 115.0, 362.2 5.0, 381.0 5.0 C 399.8 5.0, 456.2 82.0, 475.0 82.0"/><circle cx="475.0" cy="82.0" r="4.0" fill="#2563EB"/></svg>