<svg xmlns="http://www.w3.org/2000/svg" viewBox="0 0 480 120" preserveAspectRatio="none"><defs><linearGradient id="sparklinekit-area-480x120-10" x1="0" y1="0" x2="0" y2="1"><stop offset="0%" stop-color="#1f6feb33"/><stop offset="100%" stop-color="#1f6feb00"/></linearGradient></defs><rect x="0" y="0" width="480" height="120" fill="#F0F6FF"/><path fill="url(#sparklinekit-area-480x120-10)" stroke="none" d="M 5.0 115.0 C 19.622222222222224 115.0, 42.599999999999994 78.33333333333334, 57.22222222222222 78.33333333333334 C 71.84444444444445 78.33333333333334, 94.82222222222222 96.66666666666667, 109.44444444444444 96.66666666666667 C 124.06666666666666 96.66666666666667, 147.04444444444442 50.83333333333333, 161.66666666666666 50.83333333333333 C 176.2888888888889 50.83333333333333, 199.26666666666665 87.5, 213.88888888888889 87.5 C 228.5111111111111 87.5, 251.48888888888888 41.66666666666667, 266.1111111111111 41.66666666666667 C 280.7333333333333 41.66666666666667, 303.7111111111111 69.16666666666666, 318.3333333333333 69.16666666666666 C 332.9555555555555 69.16666666666666, 355.93333333333334 23.33333333333333, 370.55555555555554 23.33333333333333 C 385.17777777777775 23.33333333333333, 408.15555555555557 60.0, 422.77777777777777 60.0 C 437.4 60.0, 460.3777777777778 5.0, 475.0 5.0 L 475.0 120.0 L 5.0 120.0 Z"/><path fill="none" stroke="#1F6FEB" stroke-width="2.8" stroke-linecap="round" stroke-linejoin="round" d="M 5.0 115.0 C 19.622222222222224 115.0, 42.599999999999994 78.33333333333334, 57.22222222222222 78.33333333333334 C 71.84444444444445 78.33333333333334, 94.82222222222222 96.66666666666667, 109.44444444444444 96.66666666666667 C 124.06666666666666 96.66666666666667, 147.04444444444442 50.83333333333333, 161.66666666666666 50.83333333333333 C 176.2888888888889 50.83333333333333, 199.26666666666665 87.5, 213.88888888888889 87.5 C 228.5111111111111 87.5, 251.48888888888888 41.66666666666667, 266.1111111111111 41.66666666666667 C 280.7333333333333 41.66666666666667, 303.7111111111111 69.16666666666666, 318.3333333333333 69.16666666666666 C 332.9555555555555 69.16666666666666, 355.93333333333334 23.33333333333333, 370.55555555555554 23.33333333333333 C 385.17777777777775 23.33333333333333, 408.15555555555557 60.0, 422.77777777777777 60.0 C 437.4 60.0, 460.3777777777778 5.0, 475.0 5.0"/><circle cx="475.0" cy="5.0" r="4.0" fill="#1F6FEB"/></svg>