<svg xmlns="http://www.w3.org/2000/svg" width="480" height="120" viewBox="0 0 480 120" preserveAspectRatio="none"><defs><linearGradient id="sparklinekit-area-480x120-10-1f6feb33" x1="0" y1="0" x2="0" y2="1"><stop offset="0%" stop-color="#1f6feb33"/><stop offset="100%" stop-color="#1f6feb00"/></linearGradient></defs><rect x="0" y="0" width="480" height="120" fill="#F0F6FF"/><path fill="url(#sparklinekit-area-480x120-10-1f6feb33)" stroke="none" d="M 5.0 115.0 C 19.62 115.0, 42.6 78.33, 57.22 78.33 C 71.84 78.33, 94.82 96.67, 109.44 96.67 C 124.07 96.67, 147.04 50.83, 161.67 50.83 C 176.29 50.83, 199.27 87.5, 213.89 87.5 C 228.51 87.5, 251.49 41.67, 266.11 41.67 C 280.73 41.67, 303.71 69.17, 318.33 69.17 C 332.96 69.17, 355.93 23.33, 370.56 23.33 C 385.18 23.33, 408.16 60.0, 422.78 60.0 C 437.4 60.0, 460.38 5.0, 475.0 5.0 L 475.0 120.0 L 5.0 120.0 Z"/><path fill="none" stroke="#1F6FEB" stroke-width="2.8" stroke-linecap="round" stroke-linejoin="round" d="M 5.0 115.0 C 19.62 115.0, 42.6 78.33, 57.22 78.33 C 71.84 78.33, 94.82 96.67, 109.44 96.67 C 124.07 96.67, 147.04 50.83, 161.67 50.83 C 176.29 50.83, 199.27 87.5, 213.89 87.5 C 228.51 87.5, 251.49 41.67, 266.11 41.67 C 280.73 41.67, 303.71 69.17, 318.33 69.17 C 332.96 69.17, 355.93 23.33, 370.56 23.33 C 385.18 23.33, 408.16 60.0, 422.78 60.0 C 437.4 60.0, 460.38 5.0, 475.0 5.0"/><circle cx="475.0" cy="5.0" r="4.0" fill="#1F6FEB"/></svg>