<svg xmlns="http://www.w3.org/2000/svg" width="360" height="90" viewBox="0 0 360 90" preserveAspectRatio="none"><defs><linearGradient id="sparklinekit-area-360x90-9-f9731633" x1="0" y1="0" x2="0" y2="1"><stop offset="0%" stop-color="#f9731633"/><stop offset="100%" stop-color="#f9731600"/></linearGradient></defs><rect x="0" y="0" width="360" height="90" fill="#FFFFFF"/><path fill="url(#sparklinekit-area-360x90-9-f9731633)" stroke="none" d="M 4.5 85.5 C 15.47 85.5, 37.41 53.1, 48.38 53.1 C 59.34 53.1, 81.28 69.3, 92.25 69.3 C 103.22 69.3, 125.16 28.8, 136.13 28.8 C 147.09 28.8, 169.03 61.2, 180.0 61.2 C 190.97 61.2, 212.91 20.7, 223.88 20.7 C 234.84 20.7, 256.78 45.0, 267.75 45.0 C 278.72 45.0, 300.66 4.5, 311.63 4.5 C 322.59 4.5, 344.53 36.9, 355.5 36.9 L 355.5 90.0 L 4.5 90.0 Z"/><path fill="none" stroke="#F97316" stroke-width="2.4" stroke-linecap="round" stroke-linejoin="round" d="M 4.5 85.5 C 15.47 85.5, 37.41 53.1, 48.38 53.1 C 59.34 53.1, 81.28 69.3, 92.25 69.3 C 103.22 69.3, 125.16 28.8, 136.13 28.8 C 147.09 28.8, 169.03 61.2, 180.0 61.2 C 190.97 61.2, 212.91 20.7, 223.88 20.7 C 234.84 20.7, 256.78 45.0, 267.75 45.0 C 278.72 45.0, 300.66 4.5, 311.63 4.5 C 322.59 4.5, 344.53 36.9, 355.5 36.9"/><circle cx="355.5" cy="36.9" r="3.5" fill="#F97316"/></svg>